<mxfile host="app.diagrams.net" agent="Mozilla/5.0 (Windows NT 10.0; Win64; x64) AppleWebKit/537.36 (KHTML, like Gecko) Chrome/134.0.0.0 Safari/537.36" version="26.1.0">
  <diagram name="Página-1" id="taTj5eu00-VmfvZgNJ3h">
    <mxGraphModel dx="1877" dy="581" grid="1" gridSize="10" guides="1" tooltips="1" connect="1" arrows="1" fold="1" page="1" pageScale="1" pageWidth="827" pageHeight="1169" math="0" shadow="0">
      <root>
        <mxCell id="0" />
        <mxCell id="1" parent="0" />
        <mxCell id="wHdnNbcy-1ttwHHeiuVB-26" style="edgeStyle=orthogonalEdgeStyle;rounded=0;orthogonalLoop=1;jettySize=auto;html=1;exitX=0.5;exitY=1;exitDx=0;exitDy=0;entryX=0;entryY=0.5;entryDx=0;entryDy=0;" edge="1" parent="1" source="wHdnNbcy-1ttwHHeiuVB-1" target="wHdnNbcy-1ttwHHeiuVB-23">
          <mxGeometry relative="1" as="geometry">
            <Array as="points">
              <mxPoint x="260" y="300" />
              <mxPoint x="260" y="405" />
            </Array>
          </mxGeometry>
        </mxCell>
        <mxCell id="wHdnNbcy-1ttwHHeiuVB-68" style="edgeStyle=orthogonalEdgeStyle;rounded=0;orthogonalLoop=1;jettySize=auto;html=1;exitX=0;exitY=0.5;exitDx=0;exitDy=0;entryX=1;entryY=0.5;entryDx=0;entryDy=0;" edge="1" parent="1" source="wHdnNbcy-1ttwHHeiuVB-1" target="wHdnNbcy-1ttwHHeiuVB-15">
          <mxGeometry relative="1" as="geometry" />
        </mxCell>
        <mxCell id="wHdnNbcy-1ttwHHeiuVB-70" style="edgeStyle=orthogonalEdgeStyle;rounded=0;orthogonalLoop=1;jettySize=auto;html=1;exitX=0;exitY=0.25;exitDx=0;exitDy=0;entryX=0.5;entryY=1;entryDx=0;entryDy=0;" edge="1" parent="1" source="wHdnNbcy-1ttwHHeiuVB-1" target="wHdnNbcy-1ttwHHeiuVB-16">
          <mxGeometry relative="1" as="geometry" />
        </mxCell>
        <mxCell id="wHdnNbcy-1ttwHHeiuVB-71" style="edgeStyle=orthogonalEdgeStyle;rounded=0;orthogonalLoop=1;jettySize=auto;html=1;exitX=0.25;exitY=1;exitDx=0;exitDy=0;entryX=0.5;entryY=1;entryDx=0;entryDy=0;" edge="1" parent="1" source="wHdnNbcy-1ttwHHeiuVB-1" target="wHdnNbcy-1ttwHHeiuVB-24">
          <mxGeometry relative="1" as="geometry" />
        </mxCell>
        <mxCell id="wHdnNbcy-1ttwHHeiuVB-1" value="Cliente" style="whiteSpace=wrap;html=1;" vertex="1" parent="1">
          <mxGeometry x="190" y="240" width="120" height="60" as="geometry" />
        </mxCell>
        <mxCell id="wHdnNbcy-1ttwHHeiuVB-37" style="edgeStyle=orthogonalEdgeStyle;rounded=0;orthogonalLoop=1;jettySize=auto;html=1;exitX=0.75;exitY=0;exitDx=0;exitDy=0;entryX=0.5;entryY=1;entryDx=0;entryDy=0;" edge="1" parent="1" source="wHdnNbcy-1ttwHHeiuVB-2" target="wHdnNbcy-1ttwHHeiuVB-17">
          <mxGeometry relative="1" as="geometry" />
        </mxCell>
        <mxCell id="wHdnNbcy-1ttwHHeiuVB-38" style="edgeStyle=orthogonalEdgeStyle;rounded=0;orthogonalLoop=1;jettySize=auto;html=1;exitX=0.25;exitY=0;exitDx=0;exitDy=0;entryX=0.5;entryY=1;entryDx=0;entryDy=0;" edge="1" parent="1" source="wHdnNbcy-1ttwHHeiuVB-2" target="wHdnNbcy-1ttwHHeiuVB-18">
          <mxGeometry relative="1" as="geometry" />
        </mxCell>
        <mxCell id="wHdnNbcy-1ttwHHeiuVB-2" value="Viaje" style="whiteSpace=wrap;html=1;" vertex="1" parent="1">
          <mxGeometry x="190" y="100" width="120" height="60" as="geometry" />
        </mxCell>
        <mxCell id="wHdnNbcy-1ttwHHeiuVB-66" style="edgeStyle=orthogonalEdgeStyle;rounded=0;orthogonalLoop=1;jettySize=auto;html=1;exitX=0.5;exitY=1;exitDx=0;exitDy=0;entryX=0.5;entryY=0;entryDx=0;entryDy=0;" edge="1" parent="1" source="wHdnNbcy-1ttwHHeiuVB-5" target="wHdnNbcy-1ttwHHeiuVB-15">
          <mxGeometry relative="1" as="geometry">
            <Array as="points">
              <mxPoint x="37" y="165" />
            </Array>
          </mxGeometry>
        </mxCell>
        <mxCell id="wHdnNbcy-1ttwHHeiuVB-67" style="edgeStyle=orthogonalEdgeStyle;rounded=0;orthogonalLoop=1;jettySize=auto;html=1;exitX=1;exitY=0.75;exitDx=0;exitDy=0;entryX=0.5;entryY=0;entryDx=0;entryDy=0;" edge="1" parent="1" source="wHdnNbcy-1ttwHHeiuVB-5" target="wHdnNbcy-1ttwHHeiuVB-16">
          <mxGeometry relative="1" as="geometry" />
        </mxCell>
        <mxCell id="wHdnNbcy-1ttwHHeiuVB-72" style="edgeStyle=orthogonalEdgeStyle;rounded=0;orthogonalLoop=1;jettySize=auto;html=1;exitX=0;exitY=0.5;exitDx=0;exitDy=0;entryX=0.5;entryY=0;entryDx=0;entryDy=0;" edge="1" parent="1" source="wHdnNbcy-1ttwHHeiuVB-5" target="wHdnNbcy-1ttwHHeiuVB-24">
          <mxGeometry relative="1" as="geometry" />
        </mxCell>
        <mxCell id="wHdnNbcy-1ttwHHeiuVB-74" style="edgeStyle=orthogonalEdgeStyle;rounded=0;orthogonalLoop=1;jettySize=auto;html=1;exitX=0.25;exitY=0;exitDx=0;exitDy=0;entryX=0.5;entryY=1;entryDx=0;entryDy=0;" edge="1" parent="1" source="wHdnNbcy-1ttwHHeiuVB-5" target="wHdnNbcy-1ttwHHeiuVB-73">
          <mxGeometry relative="1" as="geometry" />
        </mxCell>
        <mxCell id="wHdnNbcy-1ttwHHeiuVB-5" value="Empleado" style="whiteSpace=wrap;html=1;" vertex="1" parent="1">
          <mxGeometry x="-30" y="105" width="120" height="60" as="geometry" />
        </mxCell>
        <mxCell id="wHdnNbcy-1ttwHHeiuVB-54" style="edgeStyle=orthogonalEdgeStyle;rounded=0;orthogonalLoop=1;jettySize=auto;html=1;exitX=1;exitY=1;exitDx=0;exitDy=0;" edge="1" parent="1" source="wHdnNbcy-1ttwHHeiuVB-6">
          <mxGeometry relative="1" as="geometry">
            <mxPoint x="550" y="330" as="targetPoint" />
          </mxGeometry>
        </mxCell>
        <mxCell id="wHdnNbcy-1ttwHHeiuVB-56" style="edgeStyle=orthogonalEdgeStyle;rounded=0;orthogonalLoop=1;jettySize=auto;html=1;exitX=0.5;exitY=1;exitDx=0;exitDy=0;entryX=0;entryY=0.5;entryDx=0;entryDy=0;" edge="1" parent="1" source="wHdnNbcy-1ttwHHeiuVB-6" target="wHdnNbcy-1ttwHHeiuVB-47">
          <mxGeometry relative="1" as="geometry">
            <Array as="points">
              <mxPoint x="500" y="300" />
              <mxPoint x="500" y="415" />
            </Array>
          </mxGeometry>
        </mxCell>
        <mxCell id="wHdnNbcy-1ttwHHeiuVB-57" style="edgeStyle=orthogonalEdgeStyle;rounded=0;orthogonalLoop=1;jettySize=auto;html=1;exitX=0.5;exitY=1;exitDx=0;exitDy=0;entryX=1;entryY=0.5;entryDx=0;entryDy=0;" edge="1" parent="1" source="wHdnNbcy-1ttwHHeiuVB-6" target="wHdnNbcy-1ttwHHeiuVB-44">
          <mxGeometry relative="1" as="geometry">
            <Array as="points">
              <mxPoint x="500" y="300" />
            </Array>
          </mxGeometry>
        </mxCell>
        <mxCell id="wHdnNbcy-1ttwHHeiuVB-59" style="edgeStyle=orthogonalEdgeStyle;rounded=0;orthogonalLoop=1;jettySize=auto;html=1;exitX=0.25;exitY=0;exitDx=0;exitDy=0;entryX=1;entryY=0.5;entryDx=0;entryDy=0;" edge="1" parent="1" source="wHdnNbcy-1ttwHHeiuVB-6" target="wHdnNbcy-1ttwHHeiuVB-28">
          <mxGeometry relative="1" as="geometry" />
        </mxCell>
        <mxCell id="wHdnNbcy-1ttwHHeiuVB-62" style="edgeStyle=orthogonalEdgeStyle;rounded=0;orthogonalLoop=1;jettySize=auto;html=1;exitX=0.75;exitY=0;exitDx=0;exitDy=0;entryX=0.5;entryY=1;entryDx=0;entryDy=0;" edge="1" parent="1" source="wHdnNbcy-1ttwHHeiuVB-6" target="wHdnNbcy-1ttwHHeiuVB-46">
          <mxGeometry relative="1" as="geometry" />
        </mxCell>
        <mxCell id="wHdnNbcy-1ttwHHeiuVB-6" value="Servicio" style="whiteSpace=wrap;html=1;" vertex="1" parent="1">
          <mxGeometry x="430" y="240" width="120" height="60" as="geometry" />
        </mxCell>
        <mxCell id="wHdnNbcy-1ttwHHeiuVB-60" style="edgeStyle=orthogonalEdgeStyle;rounded=0;orthogonalLoop=1;jettySize=auto;html=1;exitX=0.25;exitY=1;exitDx=0;exitDy=0;" edge="1" parent="1" source="wHdnNbcy-1ttwHHeiuVB-7">
          <mxGeometry relative="1" as="geometry">
            <mxPoint x="420" y="200" as="targetPoint" />
            <Array as="points">
              <mxPoint x="460" y="200" />
            </Array>
          </mxGeometry>
        </mxCell>
        <mxCell id="wHdnNbcy-1ttwHHeiuVB-61" style="edgeStyle=orthogonalEdgeStyle;rounded=0;orthogonalLoop=1;jettySize=auto;html=1;exitX=0.75;exitY=1;exitDx=0;exitDy=0;entryX=0.5;entryY=0;entryDx=0;entryDy=0;" edge="1" parent="1" source="wHdnNbcy-1ttwHHeiuVB-7" target="wHdnNbcy-1ttwHHeiuVB-46">
          <mxGeometry relative="1" as="geometry" />
        </mxCell>
        <mxCell id="wHdnNbcy-1ttwHHeiuVB-64" style="edgeStyle=orthogonalEdgeStyle;rounded=0;orthogonalLoop=1;jettySize=auto;html=1;exitX=0.25;exitY=0;exitDx=0;exitDy=0;entryX=0.5;entryY=1;entryDx=0;entryDy=0;" edge="1" parent="1" source="wHdnNbcy-1ttwHHeiuVB-7" target="wHdnNbcy-1ttwHHeiuVB-31">
          <mxGeometry relative="1" as="geometry" />
        </mxCell>
        <mxCell id="wHdnNbcy-1ttwHHeiuVB-7" value="Producto" style="whiteSpace=wrap;html=1;" vertex="1" parent="1">
          <mxGeometry x="430" y="100" width="120" height="60" as="geometry" />
        </mxCell>
        <mxCell id="wHdnNbcy-1ttwHHeiuVB-15" value="&lt;b&gt;&lt;u&gt;Identificador&lt;/u&gt;&lt;/b&gt;" style="ellipse;whiteSpace=wrap;html=1;" vertex="1" parent="1">
          <mxGeometry x="-3" y="250" width="80" height="50" as="geometry" />
        </mxCell>
        <mxCell id="wHdnNbcy-1ttwHHeiuVB-16" value="Pasaporte" style="ellipse;whiteSpace=wrap;html=1;" vertex="1" parent="1">
          <mxGeometry x="107" y="205" width="60" height="30" as="geometry" />
        </mxCell>
        <mxCell id="wHdnNbcy-1ttwHHeiuVB-17" value="Precio Por Persona" style="ellipse;whiteSpace=wrap;html=1;" vertex="1" parent="1">
          <mxGeometry x="250" y="40" width="60" height="40" as="geometry" />
        </mxCell>
        <mxCell id="wHdnNbcy-1ttwHHeiuVB-18" value="&lt;b&gt;&lt;u&gt;IdViaje&lt;/u&gt;&lt;/b&gt;" style="ellipse;whiteSpace=wrap;html=1;" vertex="1" parent="1">
          <mxGeometry x="190" y="45" width="40" height="30" as="geometry" />
        </mxCell>
        <mxCell id="wHdnNbcy-1ttwHHeiuVB-23" value="CorreoElectrónico" style="ellipse;whiteSpace=wrap;html=1;" vertex="1" parent="1">
          <mxGeometry x="270" y="390" width="100" height="30" as="geometry" />
        </mxCell>
        <mxCell id="wHdnNbcy-1ttwHHeiuVB-24" value="NombreCompleto" style="ellipse;whiteSpace=wrap;html=1;" vertex="1" parent="1">
          <mxGeometry x="-130" y="205" width="100" height="30" as="geometry" />
        </mxCell>
        <mxCell id="wHdnNbcy-1ttwHHeiuVB-28" value="&lt;b&gt;&lt;u&gt;IdExtra&lt;/u&gt;&lt;/b&gt;" style="ellipse;whiteSpace=wrap;html=1;" vertex="1" parent="1">
          <mxGeometry x="364" y="185" width="60" height="30" as="geometry" />
        </mxCell>
        <mxCell id="wHdnNbcy-1ttwHHeiuVB-30" value="categoría" style="ellipse;whiteSpace=wrap;html=1;" vertex="1" parent="1">
          <mxGeometry x="504" y="50" width="60" height="30" as="geometry" />
        </mxCell>
        <mxCell id="wHdnNbcy-1ttwHHeiuVB-31" value="descripción" style="ellipse;whiteSpace=wrap;html=1;" vertex="1" parent="1">
          <mxGeometry x="430" y="50" width="60" height="30" as="geometry" />
        </mxCell>
        <mxCell id="wHdnNbcy-1ttwHHeiuVB-40" style="edgeStyle=orthogonalEdgeStyle;rounded=0;orthogonalLoop=1;jettySize=auto;html=1;exitX=0.75;exitY=0;exitDx=0;exitDy=0;entryX=0.353;entryY=1.033;entryDx=0;entryDy=0;entryPerimeter=0;" edge="1" parent="1" source="wHdnNbcy-1ttwHHeiuVB-7" target="wHdnNbcy-1ttwHHeiuVB-30">
          <mxGeometry relative="1" as="geometry" />
        </mxCell>
        <mxCell id="wHdnNbcy-1ttwHHeiuVB-44" value="idEmpleado" style="ellipse;whiteSpace=wrap;html=1;" vertex="1" parent="1">
          <mxGeometry x="400" y="335" width="70" height="30" as="geometry" />
        </mxCell>
        <mxCell id="wHdnNbcy-1ttwHHeiuVB-46" value="Precio" style="ellipse;whiteSpace=wrap;html=1;" vertex="1" parent="1">
          <mxGeometry x="504" y="180" width="60" height="30" as="geometry" />
        </mxCell>
        <mxCell id="wHdnNbcy-1ttwHHeiuVB-47" value="Número de Personas" style="ellipse;whiteSpace=wrap;html=1;" vertex="1" parent="1">
          <mxGeometry x="517" y="400" width="86" height="30" as="geometry" />
        </mxCell>
        <mxCell id="wHdnNbcy-1ttwHHeiuVB-48" value="descripción" style="ellipse;whiteSpace=wrap;html=1;" vertex="1" parent="1">
          <mxGeometry x="517" y="335" width="60" height="30" as="geometry" />
        </mxCell>
        <mxCell id="wHdnNbcy-1ttwHHeiuVB-50" value="" style="endArrow=none;html=1;rounded=0;exitX=0.5;exitY=0;exitDx=0;exitDy=0;" edge="1" parent="1" source="wHdnNbcy-1ttwHHeiuVB-51">
          <mxGeometry width="50" height="50" relative="1" as="geometry">
            <mxPoint x="200" y="210" as="sourcePoint" />
            <mxPoint x="250" y="160" as="targetPoint" />
          </mxGeometry>
        </mxCell>
        <mxCell id="wHdnNbcy-1ttwHHeiuVB-52" value="" style="endArrow=none;html=1;rounded=0;exitX=0.5;exitY=0;exitDx=0;exitDy=0;" edge="1" parent="1" source="wHdnNbcy-1ttwHHeiuVB-1" target="wHdnNbcy-1ttwHHeiuVB-51">
          <mxGeometry width="50" height="50" relative="1" as="geometry">
            <mxPoint x="250" y="240" as="sourcePoint" />
            <mxPoint x="250" y="160" as="targetPoint" />
          </mxGeometry>
        </mxCell>
        <mxCell id="wHdnNbcy-1ttwHHeiuVB-78" style="edgeStyle=orthogonalEdgeStyle;rounded=0;orthogonalLoop=1;jettySize=auto;html=1;exitX=1;exitY=1;exitDx=0;exitDy=0;entryX=0;entryY=0.5;entryDx=0;entryDy=0;" edge="1" parent="1" source="wHdnNbcy-1ttwHHeiuVB-51" target="wHdnNbcy-1ttwHHeiuVB-76">
          <mxGeometry relative="1" as="geometry">
            <Array as="points">
              <mxPoint x="275" y="220" />
            </Array>
          </mxGeometry>
        </mxCell>
        <mxCell id="wHdnNbcy-1ttwHHeiuVB-81" style="edgeStyle=orthogonalEdgeStyle;rounded=0;orthogonalLoop=1;jettySize=auto;html=1;exitX=1;exitY=1;exitDx=0;exitDy=0;entryX=0.5;entryY=1;entryDx=0;entryDy=0;" edge="1" parent="1" source="wHdnNbcy-1ttwHHeiuVB-51" target="wHdnNbcy-1ttwHHeiuVB-77">
          <mxGeometry relative="1" as="geometry">
            <Array as="points">
              <mxPoint x="330" y="203" />
            </Array>
          </mxGeometry>
        </mxCell>
        <mxCell id="wHdnNbcy-1ttwHHeiuVB-51" value="Contratación" style="rhombus;whiteSpace=wrap;html=1;" vertex="1" parent="1">
          <mxGeometry x="200" y="180" width="100" height="30" as="geometry" />
        </mxCell>
        <mxCell id="wHdnNbcy-1ttwHHeiuVB-73" value="Teléfono" style="ellipse;whiteSpace=wrap;html=1;" vertex="1" parent="1">
          <mxGeometry x="-50" y="50" width="60" height="30" as="geometry" />
        </mxCell>
        <mxCell id="wHdnNbcy-1ttwHHeiuVB-75" value="M:N" style="text;html=1;align=center;verticalAlign=middle;resizable=0;points=[];autosize=1;strokeColor=none;fillColor=none;" vertex="1" parent="1">
          <mxGeometry x="260" y="165" width="50" height="30" as="geometry" />
        </mxCell>
        <mxCell id="wHdnNbcy-1ttwHHeiuVB-76" value="&lt;font style=&quot;font-size: 10px;&quot;&gt;Nº Villetes&lt;/font&gt;" style="ellipse;whiteSpace=wrap;html=1;" vertex="1" parent="1">
          <mxGeometry x="310" y="205" width="40" height="30" as="geometry" />
        </mxCell>
        <mxCell id="wHdnNbcy-1ttwHHeiuVB-77" value="Fecha" style="ellipse;whiteSpace=wrap;html=1;" vertex="1" parent="1">
          <mxGeometry x="310" y="165" width="40" height="30" as="geometry" />
        </mxCell>
        <mxCell id="wHdnNbcy-1ttwHHeiuVB-82" value="" style="endArrow=none;html=1;rounded=0;entryX=0;entryY=0.5;entryDx=0;entryDy=0;" edge="1" parent="1" source="wHdnNbcy-1ttwHHeiuVB-83" target="wHdnNbcy-1ttwHHeiuVB-7">
          <mxGeometry width="50" height="50" relative="1" as="geometry">
            <mxPoint x="310" y="130" as="sourcePoint" />
            <mxPoint x="360" y="80" as="targetPoint" />
          </mxGeometry>
        </mxCell>
        <mxCell id="wHdnNbcy-1ttwHHeiuVB-84" value="" style="endArrow=none;html=1;rounded=0;entryX=0;entryY=0.5;entryDx=0;entryDy=0;" edge="1" parent="1" target="wHdnNbcy-1ttwHHeiuVB-83">
          <mxGeometry width="50" height="50" relative="1" as="geometry">
            <mxPoint x="310" y="130" as="sourcePoint" />
            <mxPoint x="430" y="130" as="targetPoint" />
          </mxGeometry>
        </mxCell>
        <mxCell id="wHdnNbcy-1ttwHHeiuVB-83" value="Incluye Producto" style="rhombus;whiteSpace=wrap;html=1;" vertex="1" parent="1">
          <mxGeometry x="330" y="110" width="70" height="40" as="geometry" />
        </mxCell>
        <mxCell id="wHdnNbcy-1ttwHHeiuVB-87" value="M:N" style="text;html=1;align=center;verticalAlign=middle;resizable=0;points=[];autosize=1;strokeColor=none;fillColor=none;" vertex="1" parent="1">
          <mxGeometry x="340" y="80" width="50" height="30" as="geometry" />
        </mxCell>
      </root>
    </mxGraphModel>
  </diagram>
</mxfile>
